<svg viewBox="0 0 140 140" xmlns="http://www.w3.org/2000/svg" width="140" height="140">
  <rect x="0" y="0" width="140" height="140" rx="28" fill="#1C1C1A"/>
  <circle cx="48" cy="44" r="4" fill="#534AB7"/>
  <circle cx="70" cy="38" r="3" fill="#7F77DD" opacity=".7"/>
  <circle cx="92" cy="44" r="4" fill="#534AB7"/>
  <line x1="52" y1="44" x2="66" y2="40" stroke="#7F77DD" stroke-width="1.5" opacity=".5"/>
  <line x1="74" y1="39" x2="88" y2="43" stroke="#7F77DD" stroke-width="1.5" opacity=".5"/>
  <circle cx="38" cy="70" r="3.5" fill="#AFA9EC" opacity=".6"/>
  <circle cx="70" cy="66" r="6" fill="#7F77DD"/>
  <circle cx="102" cy="70" r="3.5" fill="#AFA9EC" opacity=".6"/>
  <line x1="41" y1="68" x2="64" y2="67" stroke="#7F77DD" stroke-width="1.5" opacity=".5"/>
  <line x1="76" y1="67" x2="99" y2="69" stroke="#7F77DD" stroke-width="1.5" opacity=".5"/>
  <line x1="48" y1="48" x2="42" y2="66" stroke="#534AB7" stroke-width="1.5" opacity=".5"/>
  <line x1="92" y1="48" x2="98" y2="66" stroke="#534AB7" stroke-width="1.5" opacity=".5"/>
  <line x1="70" y1="42" x2="70" y2="60" stroke="#7F77DD" stroke-width="1.5" opacity=".5"/>
  <circle cx="52" cy="96" r="4" fill="#534AB7"/>
  <circle cx="70" cy="102" r="3" fill="#7F77DD" opacity=".7"/>
  <circle cx="88" cy="96" r="4" fill="#534AB7"/>
  <line x1="44" y1="73" x2="50" y2="92" stroke="#534AB7" stroke-width="1.5" opacity=".5"/>
  <line x1="96" y1="73" x2="90" y2="92" stroke="#534AB7" stroke-width="1.5" opacity=".5"/>
  <line x1="70" y1="72" x2="70" y2="99" stroke="#7F77DD" stroke-width="1.5" opacity=".5"/>
  <line x1="56" y1="97" x2="66" y2="100" stroke="#7F77DD" stroke-width="1.5" opacity=".5"/>
  <line x1="74" y1="101" x2="84" y2="97" stroke="#7F77DD" stroke-width="1.5" opacity=".5"/>
</svg>
